<svg 
 xmlns="http://www.w3.org/2000/svg"
 xmlns:xlink="http://www.w3.org/1999/xlink"
 width="36px" height="29px">
<path fill-rule="evenodd"  fill="rgb(233, 233, 233)"
 d="M8.845,28.987 C12.867,28.987 16.266,25.899 16.266,21.632 C16.266,17.029 12.867,14.278 8.845,14.278 C7.202,14.278 5.672,14.896 4.539,15.794 C4.312,15.120 4.199,14.390 4.199,13.380 C4.199,8.889 8.278,4.061 13.037,2.096 L11.961,0.019 C3.746,3.836 0.007,10.292 0.007,17.759 C0.007,19.611 0.346,22.811 1.989,25.338 C3.406,27.527 5.445,28.987 8.845,28.987 ZM28.560,28.987 C32.640,28.987 35.982,25.899 35.982,21.632 C35.982,17.029 32.640,14.278 28.560,14.278 C26.917,14.278 25.444,14.896 24.255,15.794 C24.028,15.120 23.915,14.390 23.915,13.380 C23.915,8.889 27.994,4.061 32.753,2.096 L31.676,0.019 C23.461,3.836 19.722,10.292 19.722,17.759 C19.722,19.611 20.062,22.811 21.705,25.338 C23.122,27.527 25.218,28.987 28.560,28.987 Z"/>
</svg>